<svg xmlns="http://www.w3.org/2000/svg" width="560" height="525.004" viewBox="0 0 560 525.004">
  <path id="noun-quotes-115259" d="M315,332.5v175a34.992,34.992,0,0,1-35,35H105a34.992,34.992,0,0,1-35-35v-245c0-110.95,66.711-215.46,175-245V95.164c-66.711,24.047-105,95.621-105,167.34v35H280a35,35,0,0,1,35,35Zm280-35H455v-35c0-71.715,38.289-143.29,105-167.34V17.5c-108.29,29.539-175,134.05-175,245v245a34.992,34.992,0,0,0,35,35H595a34.992,34.992,0,0,0,35-35v-175a35,35,0,0,0-35-35Z" transform="translate(-70 -17.496)" fill="#0676ff"/>
</svg>
